<?xml version="1.0" encoding="UTF-8"?>
<svg version="1.1" viewBox="0 0 1000 584.48" xmlns="http://www.w3.org/2000/svg">
  <g transform="translate(-137.5 -22.39)">
    <path d="m137.5 29.631v252.32h132.11c51.998 0 100.05-18.25 100.05-71.858 0-36.241-26.108-52.784-54.823-61.444 17.496-7.0177 37.342-21.761 37.342-52.666 0-39.556-39.248-66.353-92.091-66.353h-122.59zm80.933 58.766h29.755c12.113 0 21.349 9.4879 21.349 19.117 0 8.9468-9.5974 18.522-21.349 18.522h-29.755v-37.64zm0 90.008h39.276c13.711 0 25.217 10.414 25.217 22.316 0 12.639-10.761 23.134-27.598 23.134h-36.896v-45.45z" fill="#1c252c"/>
    <path d="m202.96 309.47v252.32h132.11c51.998 0 100.05-18.25 100.05-71.858 0-36.241-26.108-52.784-54.823-61.444 17.496-7.0177 37.342-21.761 37.342-52.666 0-39.556-39.248-66.353-92.091-66.353h-122.59zm80.933 58.766h29.755c12.113 0 21.349 9.4879 21.349 19.117 0 8.9468-9.5974 18.522-21.349 18.522h-29.755v-37.64zm0 90.008h39.276c13.711 0 25.217 10.414 25.217 22.316 0 12.639-10.761 23.134-27.598 23.134h-36.896v-45.45z" fill="#1c252c"/>
    <path d="m376.01 281.92v-252.32h203.52v60.938h-122.83v33.087h99.738v57.129h-99.738v40.467h122.83v60.7z" fill="#1c252c"/>
    <path d="m689.79 289.14c57.288 0 103.11-32.677 103.11-85.632 0-85.461-111.18-72.31-111.18-98.919 0-10.278 10.809-15.733 21.895-15.733 19.104 0 32.908 12.586 32.908 12.586l47.831-45.543c-19.131-18.207-49.346-33.513-90.047-33.513-61.128 0-101.12 36.28-101.12 80.045 0 86.548 109.57 73.987 109.57 101.14 0 9.5194-9.1584 19.096-25.769 19.096-18.859 0-33.799-11.385-45.426-21.044l-48.111 45.868c19.373 18.87 50.475 41.646 106.33 41.646z" fill="#1c252c"/>
    <path d="m855.19 281.92v-191.62h-66.651v-60.7h214.23v60.7h-66.651v191.62z" fill="#1c252c"/>
    <path d="m437.9 309.3h80.695v151.15c0 15.349 15.276 29.494 31.203 29.494 15.024 0 30.211-12.773 30.211-30.301v-150.35h80.457v149.32c0 59.251-49.193 106.51-112.8 106.51-63.97 0-109.77-51.437-109.77-109.74z" fill="#1c252c"/>
    <path d="m759.97 561.62v-90.162l-94.845-162.16h81.645l53.666 86.884 53.852-86.884h81.83l-95.215 163.09v89.234z" fill="#1c252c"/>
    <path d="m936.12 447.39-47.608 47.608v64.27l47.608 47.608h201.38v-159.49z" fill="#ffed31"/>
    <path transform="matrix(2.6779 0 0 2.6779 -327.65 -1008.3)" d="m469 573.36c0 2.2091-1.7909 4-4 4s-4-1.7909-4-4 1.7909-4 4-4 4 1.7909 4 4z" fill="#1c252c"/>
  </g>
</svg>